# AST/ASF file generated using VICON BodyLanguage
# -----------------------------------------------
:version 1.10
:name VICON
:units
  mass 1.0
  length 0.45
  angle deg
:documentation
   .ast/.asf automatically generated from VICON data using
   VICON BodyBuilder and BodyLanguage model FoxedUp or BRILLIANT.MOD
:root
   order TX TY TZ RX RY RZ
   axis XYZ
   position 0 0 0  
   orientation 0 0 0 
:bonedata
  begin
     id 1 
     name lhipjoint
     direction 0.630305 -0.712092 0.309259 
     length 2.29033 
     axis 0 0 0  XYZ
  end
  begin
     id 2 
     name lfemur
     direction 0.34202 -0.939693 0  
     length 6.43538  
     axis 0 0 20  XYZ
    dof rx ry rz
    limits (-160.0 20.0)
           (-70.0 70.0)
           (-60.0 70.0)
  end
  begin
     id 3 
     name ltibia
     direction 0.34202 -0.939693 0   
     length 7.43097   
     axis 0 0 20   XYZ
    dof rx
    limits (-10.0 170.0)
  end
  begin
     id 4 
     name lfoot
     direction 0.0334653 -0.0919451 0.995202   
     length 1.78438   
     axis -90 7.62852e-016 20   XYZ
    dof rx rz
    limits (-45.0 90.0)
           (-70.0 20.0)
  end
  begin
     id 5 
     name ltoes
     direction 1.53535e-011 -4.21933e-011 1   
     length 0.90832   
     axis -90 7.62852e-016 20   XYZ
    dof rx
    limits (-90.0 20.0)
  end
  begin
     id 6 
     name rhipjoint
     direction -0.682059 -0.67077 0.291312   
     length 2.43143  
     axis 0 0 0  XYZ 
  end
  begin
     id 7 
     name rfemur
     direction -0.34202 -0.939693 0   
     length 6.63488   
     axis 0 0 -20   XYZ
    dof rx ry rz
    limits (-160.0 20.0)
           (-70.0 70.0)
           (-70.0 60.0)
  end
  begin
     id 8 
     name rtibia
     direction -0.34202 -0.939693 0   
     length 6.86532   
     axis 0 0 -20   XYZ
    dof rx
    limits (-10.0 170.0)
 end
 begin
     id 9 
     name rfoot
     direction -0.105199 -0.289033 0.951521   
     length 1.77126  
     axis -90 -7.62852e-016 -20   XYZ
    dof rx rz
    limits (-45.0 90.0)
           (-20.0 70.0)
  end
  begin
     id 10 
     name rtoes
     direction -1.53551e-011 -4.21978e-011 1   
     length 0.889273   
     axis -90 -7.62852e-016 -20   XYZ
    dof rx
    limits (-90.0 20.0)
  end
  begin
     id 11 
     name lowerback
     direction -0.0514305 0.998089 0.034245   
     length 2.02077   
     axis 0 0 0   XYZ
    dof rx ry rz
    limits (-20.0 45.0)
           (-30.0 30.0)
           (-30.0 30.0)
  end
  begin
     id 12 
     name upperback
     direction 0.0203189 0.999449 -0.0262315   
     length 2.01413   
     axis 0 0 0   XYZ
    dof rx ry rz
    limits (-20.0 45.0)
           (-30.0 30.0)
           (-30.0 30.0)
  end
  begin
     id 13 
     name thorax
     direction 0.0452736 0.998142 -0.0407729   
     length 2.02986   
     axis 0 0 0   XYZ
    dof rx ry rz
    limits (-20.0 45.0)
           (-30.0 30.0)
           (-30.0 30.0)
  end
  begin
     id 14 
     name lowerneck
     direction -0.0180464 0.999645 -0.0195774   
     length 1.59034   
     axis 0 0 0   XYZ
    dof rx ry rz
    limits (-20.0 45.0)
           (-30.0 30.0)
           (-30.0 30.0)
  end
  begin
     id 15 
     name upperneck
     direction 0.0732272 0.979935 -0.18538   
     length 1.57486   
     axis 0 0 0   XYZ
    dof rx ry rz
    limits (-20.0 45.0)
           (-30.0 30.0)
           (-30.0 30.0)
  end
  begin
     id 16
     name head
     direction 0.0252963 0.997909 -0.059472  
     length 1.60334  
     axis 0 0 0   XYZ
    dof rx ry rz
    limits (-20.0 45.0)
           (-30.0 30.0)
           (-30.0 30.0)
  end
  begin
     id 17 
     name lclavicle
     direction 0.943819 0.330449 0.00315172  
     length 3.50322  
     axis 0 0 0   XYZ
    dof ry rz
    limits (-20.0 10.0)
           (0.0 20.0)
  end
  begin
     id 18 
     name lhumerus
     direction 1 -4.48949e-011 2.22502e-028   
     length 4.63208   
     axis 180 -30 -90   XYZ
    dof rx ry rz
    limits (-60.0 90.0)
           (-90.0 90.0)
           (-90.0 90.0)
  end
  begin
     id 19
     name lradius
     direction 1 -4.48967e-011 -4.10197e-027   
     length 3.41924   
     axis 180 -30 -90   XYZ
    dof rx
    limits (-10.0 170.0)
  end
  begin
     id 20
     name lwrist
     direction 1 -4.48987e-011 -1.24264e-027   
     length 1.70962   
     axis 2.50585e-015 90 90   XYZ
    dof ry
    limits (-180.0 0.0)
 end
  begin
     id 21 
     name lhand
     direction 1 -4.48983e-011 -2.48528e-027   
     length 0.62537   
     axis 1.58582e-015 90 90   XYZ
    dof rx rz
    limits (-90.0 90.0)
           (-45.0 45.0)
  end
  begin
     id 22 
     name lfingers
     direction 1 -4.48896e-011 -4.97056e-027   
     length 0.50419   
     axis 3.17164e-015 90 90   XYZ
    dof rx
    limits (0.0 90.0)
  end
  begin
     id 23
     name lthumb
     direction 0.707107 -6.34803e-011 0.707107   
     length 0.723919   
     axis -90 45 2.85299e-015   XYZ
    dof rx rz
    limits (-45.0 45.0)
           (-45.0 45.0)
  end
  begin
     id 24 
     name rclavicle
     direction -0.964499 0.260664 -0.0423695   
     length 3.91997  
     axis 0 0 0   XYZ 
    dof ry rz
    limits (-10.0 20.0)
           (-20.0 0.0)
  end
  begin
     id 25 
     name rhumerus
     direction -1 -4.48957e-011 -1.98656e-027  
     length 4.4064   
     axis 180 30 90   XYZ
    dof rx ry rz
    limits (-90.0 60.0)
           (-90.0 90.0)
           (-90.0 90.0)
  end
  begin
     id 26 
     name rradius
     direction -1 -4.48968e-011 1.96972e-027   
     length 3.44675   
     axis 180 30 90   XYZ
    dof rx
    limits (-10.0 170.0)
  end
  begin
     id 27 
     name rwrist
     direction -1 -4.48974e-011 -1.24264e-027   
     length 1.72338   
     axis 2.50585e-015 -90 -90   XYZ
    dof ry
    limits (-180.0 0.0)
  end
  begin
     id 28
     name rhand
     direction -1 -4.48901e-011 -2.48528e-027   
     length 0.513674   
     axis 1.58582e-015 -90 -90   XYZ
    dof rx rz
    limits (-90.0 90.0)
           (-45.0 45.0)
  end
  begin
     id 29
     name rfingers
     direction -1 -4.48946e-011 -4.97056e-027   
     length 0.414137   
     axis 3.17164e-015 -90 -90   XYZ
    dof rx
    limits (0.0 90.0)
  end
  begin
     id 30
     name rthumb
     direction -0.707107 -6.34859e-011 0.707107   
     length 0.59462   
     axis -90 -45 -2.85299e-015   XYZ
    dof rx rz
    limits (-45.0 45.0)
           (-45.0 45.0)
  end
:hierarchy
  begin
    root lhipjoint rhipjoint lowerback
    lhipjoint lfemur
    lfemur ltibia
    ltibia lfoot
    lfoot ltoes
    rhipjoint rfemur
    rfemur rtibia
    rtibia rfoot
    rfoot rtoes
    lowerback upperback
    upperback thorax
    thorax lowerneck lclavicle rclavicle
    lowerneck upperneck
    upperneck head
    lclavicle lhumerus
    lhumerus lradius
    lradius lwrist
    lwrist lhand lthumb
    lhand lfingers
    rclavicle rhumerus
    rhumerus rradius
    rradius rwrist
    rwrist rhand rthumb
    rhand rfingers
  end

#!OML:ASF E:\inclinewalkrobotboard\Project 1\Capture day 1\Session 1\subject1.ASF
:FULLY-SPECIFIED
:DEGREES
1
root 11.404 15.6671 0.410283 -13.3326 -36.8433 -7.83288
lowerback 18.6189 -0.114739 9.9064
upperback 13.6978 0.768609 0.676542
thorax 4.76231 0.913926 -4.95631
lowerneck -5.36139 -1.2234 -0.582015
upperneck -0.358713 -1.6 -0.297642
head 0.77634 -0.807696 -0.030543
rclavicle 2.65874e-014 -1.25234e-014
rhumerus -20.7379 -15.2918 -91.2662
rradius 30.536
rwrist -0.478434
rhand -10.9373 -25.8408
rfingers 7.12502
rthumb 15.0809 -55.2715
lclavicle 2.65874e-014 -1.25234e-014
lhumerus -14.7652 -14.8567 91.6497
lradius 25.0567
lwrist 4.05992
lhand -19.897 -35.2888
lfingers 7.12502
lthumb 6.43922 -5.40671
rfemur -69.4089 -4.98821 31.6169
rtibia 119.419
rfoot -20.0764 -7.3502
rtoes -44.7296
lfemur -77.5982 1.49579 -18.8866
ltibia 129.157
lfoot -11.9484 -0.62979
ltoes -63.6482
2
root 11.4066 15.6778 0.413553 -13.7809 -36.9082 -7.3835
lowerback 18.4611 -0.0981818 9.07288
upperback 13.9471 0.631355 0.805567
thorax 5.05436 0.790133 -4.32659
lowerneck -5.53884 -1.09219 -0.741061
upperneck -0.51209 -1.41486 -0.352227
head 0.758985 -0.716006 -0.0173821
rclavicle -8.84592e-014 1.11319e-014
rhumerus -20.5024 -14.3005 -91.1828
rradius 30.4124
rwrist -0.434234
rhand -11.066 -25.3914
rfingers 7.12502
rthumb 14.9569 -54.8313
lclavicle -8.84592e-014 1.11319e-014
lhumerus -14.4672 -13.7542 91.7813
lradius 24.9192
lwrist 3.56905
lhand -19.974 -35.3411
lfingers 7.12502
lthumb 6.36496 -5.4567
rfemur -69.3668 -5.01737 31.0185
rtibia 119.726
rfoot -20.6157 -5.88933
rtoes -40.7634
lfemur -77.0923 1.49811 -19.3171
ltibia 128.989
lfoot -12.6403 -0.592908
ltoes -63.7084
3
root 11.409 15.6899 0.418042 -14.2513 -36.9358 -6.82784
lowerback 18.2301 -0.0709958 8.1966
upperback 14.2048 0.501688 0.866482
thorax 5.40151 0.669059 -3.74866
lowerneck -5.76725 -0.967534 -0.85152
upperneck -0.65369 -1.24131 -0.348806
head 0.753849 -0.629368 0.00505918
rclavicle 6.70898e-015 3.23025e-015
rhumerus -20.3681 -13.3735 -91.1973
rradius 30.5641
rwrist -0.40406
rhand -11.3951 -25.2477
rfingers 7.12502
rthumb 14.6399 -54.7109
lclavicle 6.70898e-015 3.23025e-015
lhumerus -14.1266 -12.8839 91.8079
lradius 24.8258
lwrist 3.28799
lhand -19.9698 -35.3184
lfingers 7.12502
lthumb 6.36893 -5.43412
rfemur -69.394 -5.08675 30.3184
rtibia 120.052
rfoot -21.0822 -4.56208
rtoes -36.7649
lfemur -76.6369 1.42381 -19.8618
ltibia 128.799
lfoot -13.2724 -0.499192
ltoes -63.5712
4
root 11.412 15.7014 0.418113 -14.7274 -36.9454 -6.26076
lowerback 18.0515 -0.0603542 7.263
upperback 14.4563 0.353491 0.938231
thorax 5.71785 0.526823 -3.12736
lowerneck -6.11785 -0.822016 -0.957901
upperneck -0.698966 -1.03662 -0.434357
head 0.798781 -0.528895 -0.000187241
rclavicle 6.78477e-014 -5.46658e-016
rhumerus -20.3246 -12.3764 -91.2119
rradius 31
rwrist -0.581459
rhand -11.5585 -25.5011
rfingers 7.12502
rthumb 14.4824 -54.9757
lclavicle 6.78477e-014 -5.46658e-016
lhumerus -13.768 -12.0568 91.8356
lradius 24.7496
lwrist 3.10271
lhand -20.0031 -35.185
lfingers 7.12502
lthumb 6.3368 -5.29979
rfemur -69.4282 -5.1444 29.6332
rtibia 120.368
rfoot -21.3814 -3.41646
rtoes -33.0594
lfemur -76.236 1.32916 -20.389
ltibia 128.591
lfoot -13.8625 -0.411643
ltoes -63.536
5
root 11.4159 15.7104 0.414062 -15.3378 -36.916 -5.60322
lowerback 17.8914 0.053658 5.79111
upperback 14.8148 0.260889 1.35941
thorax 6.13863 0.343348 -1.8388
lowerneck -6.44962 -0.677954 -1.40848
upperneck -0.897806 -0.808318 -0.752808
head 0.792615 -0.41929 -0.0183541
rclavicle -9.4696e-014 4.2043e-014
rhumerus -19.8613 -11.154 -90.7121
rradius 31.1083
rwrist -1.04568
rhand -11.2527 -26.2109
rfingers 7.12502
rthumb 14.7771 -55.6641
lclavicle -9.4696e-014 4.2043e-014
lhumerus -13.237 -10.7555 92.3687
lradius 24.5813
lwrist 2.62573
lhand -20.206 -35.267
lfingers 7.12502
lthumb 6.14089 -5.37596
rfemur -69.4252 -5.22484 28.8851
rtibia 120.68
rfoot -21.504 -2.42397
rtoes -29.6203
lfemur -75.7709 1.18364 -20.9774
ltibia 128.362
lfoot -14.9237 -0.338218
ltoes -63.7324
6
root 11.4225 15.7252 0.40732 -15.9693 -36.8004 -4.8932
lowerback 17.3307 0.293144 3.08877
upperback 15.4732 0.12147 2.56307
thorax 7.10996 -0.0351642 0.982223
lowerneck -7.62521 -1.12045 -3.9706
upperneck -0.870276 -1.17775 0.324303
head 1.03493 -0.587723 0.731226
rclavicle -9.64106e-015 2.06736e-014
rhumerus -18.676 -8.58379 -89.3023
rradius 30.7485
rwrist -1.3664
rhand -11.673 -26.2853
rfingers 7.12502
rthumb 14.3721 -55.7677
lclavicle -9.64106e-015 2.06736e-014
lhumerus -12.0792 -7.79257 93.8543
lradius 24.2001
lwrist 1.45648
lhand -20.268 -35.6345
lfingers 7.12502
lthumb 6.0811 -5.74178
rfemur -69.71 -5.39444 27.9086
rtibia 121.159
rfoot -21.5344 -0.767527
rtoes -23.0894
lfemur -75.2573 0.898806 -21.6364
ltibia 128.065
lfoot -16.7855 -0.269357
ltoes -63.8702
7
root 11.4254 15.7268 0.408975 -16.5808 -36.6781 -4.18865
lowerback 17.6064 -0.112156 3.99232
upperback 15.3997 -0.233966 1.12953
thorax 6.88419 -0.0421455 -1.02156
lowerneck -6.72243 -0.265415 -1.61361
upperneck -1.47877 -0.250154 -0.540621
head 0.655654 -0.134526 0.0946002
rclavicle -3.05631e-014 1.46107e-014
rhumerus -18.9367 -9.39764 -91.2588
rradius 30.5254
rwrist -0.0820813
rhand -12.9767 -25.459
rfingers 7.12502
rthumb 13.1157 -55.0265
lclavicle -3.05631e-014 1.46107e-014
lhumerus -12.4565 -8.76632 91.9313
lradius 24.4748
lwrist 2.10408
lhand -20.0308 -35.6577
lfingers 7.12502
lthumb 6.3101 -5.7717
rfemur -69.529 -5.68322 27.2087
rtibia 121.346
rfoot -21.7334 -0.474603
rtoes -23.1973
lfemur -74.8637 0.516907 -22.319
ltibia 127.902
lfoot -17.1625 0.0687048
ltoes -63.7472
8
root 11.4279 15.7307 0.412153 -17.2723 -36.6475 -3.44187
lowerback 17.8324 -0.177062 3.90951
upperback 15.4349 -0.301781 0.554306
thorax 6.8016 -0.0501092 -1.58432
lowerneck -6.7606 -0.245244 -1.30172
upperneck -1.38683 -0.246083 -0.268233
head 0.69098 -0.130217 0.126627
rclavicle -5.74618e-014 2.57266e-014
rhumerus -19.0916 -9.61232 -91.8809
rradius 30.5509
rwrist 0.214951
rhand -13.4505 -25.1417
rfingers 7.12502
rthumb 12.6589 -54.7381
lclavicle -5.74618e-014 2.57266e-014
lhumerus -12.5871 -9.16856 91.314
lradius 24.5754
lwrist 2.42181
lhand -20.0014 -35.6973
lfingers 7.12502
lthumb 6.33851 -5.81213
rfemur -69.2493 -5.85242 26.4826
rtibia 121.519
rfoot -21.946 -0.121853
rtoes -23.1489
lfemur -74.3449 0.304389 -23.011
ltibia 127.705
lfoot -16.3378 -0.0775561
ltoes -61.9694
9
root 11.4294 15.7309 0.413765 -18.0312 -36.6233 -2.62119
lowerback 18.0841 -0.0445662 3.2753
upperback 15.5083 -0.194216 0.386172
thorax 6.75048 -0.0449847 -1.4222
lowerneck -6.87686 -0.284149 -1.23497
upperneck -1.27355 -0.299792 -0.316414
head 0.746202 -0.158643 0.09942
rclavicle 6.95052e-014 -2.64481e-014
rhumerus -19.1469 -9.63503 -91.8758
rradius 30.6658
rwrist 0.0706165
rhand -13.42 -25.5524
rfingers 7.12502
rthumb 12.6883 -55.1469
lclavicle 6.95052e-014 -2.64481e-014
lhumerus -12.6031 -9.37298 91.3237
lradius 24.5986
lwrist 2.54636
lhand -20.1539 -35.645
lfingers 7.12502
lthumb 6.19127 -5.75545
rfemur -69.037 -5.98283 25.7091
rtibia 121.701
rfoot -22.0525 0.0848343
rtoes -23.2925
lfemur -73.8051 0.165599 -23.773
ltibia 127.519
lfoot -16.1783 -0.0532886
ltoes -60.9974
10
root 11.4312 15.7328 0.419178 -19.6492 -36.3321 -0.874391
lowerback 19.0582 0.376416 1.24489
upperback 15.3645 0.125154 0.580311
thorax 6.06266 -0.0834016 -0.116197
lowerneck -6.75132 -0.343543 -1.65485
upperneck -1.04952 -0.343503 -0.599753
head 0.79575 -0.184377 0.0810101
rclavicle -1.17432e-013 3.05134e-014
rhumerus -19.7374 -9.53546 -90.8829
rradius 31.0234
rwrist -0.882874
rhand -12.3781 -26.0622
rfingers 7.12502
rthumb 13.6926 -55.5918
lclavicle -1.17432e-013 3.05134e-014
lhumerus -13.0634 -8.89819 92.2383
lradius 24.5547
lwrist 2.15148
lhand -20.2508 -35.6356
lfingers 7.12502
lthumb 6.09766 -5.74337
rfemur -68.6034 -6.57213 23.954
rtibia 122.044
rfoot -22.1582 0.596568
rtoes -23.7098
lfemur -72.5909 -0.510635 -25.4979
ltibia 127.136
lfoot -16.8475 0.787481
ltoes -61.537
11
root 11.4323 15.7344 0.417704 -19.6665 -36.3729 -0.880399
lowerback 20.6829 1.01958 -0.946088
upperback 14.3101 0.677002 2.42541
thorax 4.00174 -0.0589288 3.00408
lowerneck -6.65754 -0.849597 -3.8942
upperneck -0.0164374 -0.832646 -0.682343
head 1.12261 -0.441478 0.416532
rclavicle -5.12864e-014 7.55382e-015
rhumerus -21.5959 -8.23014 -87.8142
rradius 31.8272
rwrist -3.0867
rhand -10.2653 -26.422
rfingers 7.12502
rthumb 15.7282 -55.8029
lclavicle -5.12864e-014 7.55382e-015
lhumerus -14.5578 -6.54832 95.1066
lradius 24.4024
lwrist 0.801824
lhand -20.2387 -35.963
lfingers 7.12502
lthumb 6.10936 -6.07114
rfemur -68.5362 -6.51458 23.9692
rtibia 122.043
rfoot -22.1315 0.632984
rtoes -23.4917
lfemur -72.5855 -0.468749 -25.4791
ltibia 127.105
lfoot -17.3601 1.18645
ltoes -62.972
12
root 11.433 15.7343 0.416218 -19.6933 -36.3543 -0.876066
lowerback 20.6509 0.975048 -0.88803
upperback 14.3492 0.626402 2.35026
thorax 4.06551 -0.0782264 2.89923
lowerneck -6.65682 -0.953347 -4.07709
upperneck -0.0466911 -0.963861 -0.32893
head 1.11979 -0.500374 0.553789
rclavicle 3.18055e-015 1.19271e-015
rhumerus -21.5916 -8.22736 -87.9709
rradius 31.8606
rwrist -2.87279
rhand -10.4925 -25.8645
rfingers 7.12502
rthumb 15.5093 -55.2625
lclavicle 3.18055e-015 1.19271e-015
lhumerus -14.528 -6.48672 94.9808
lradius 24.4297
lwrist 0.802248
lhand -20.0785 -35.9812
lfingers 7.12502
lthumb 6.26404 -6.09377
rfemur -68.4756 -6.5457 23.9471
rtibia 122.056
rfoot -22.1871 0.752209
rtoes -23.1288
lfemur -72.5964 -0.481331 -25.4737
ltibia 127.081
lfoot -17.5743 1.29812
ltoes -63.4716
